<?xml version="1.0" encoding="iso-8859-1"?>
<!-- Generator: Adobe Illustrator 19.0.0, SVG Export Plug-In . SVG Version: 6.00 Build 0)  -->
<svg version="1.1" id="Capa_1" xmlns="http://www.w3.org/2000/svg" xmlns:xlink="http://www.w3.org/1999/xlink" x="0px" y="0px"
	 viewBox="0 0 512 512" style="enable-background:new 0 0 512 512;" xml:space="preserve">
<path style="fill:#FFC454;" d="M75,362c41.357,0,75,33.643,75,75s-33.643,75-75,75l-29.082-75L75,362z"/>
<path style="fill:#FFE361;" d="M75,362v150c-41.353,0-75-33.643-75-75S33.647,362,75,362z"/>
<path style="fill:#202940;" d="M75,392c24.814,0,45,20.186,45,45s-20.186,45-45,45l-17.449-45L75,392z"/>
<path style="fill:#4F5669;" d="M75,392v90c-24.812,0-45-20.186-45-45S50.188,392,75,392z"/>
<path style="fill:#5585FF;" d="M256,377h77.11C322.87,394.66,317,415.16,317,437h-91L256,377z"/>
<path style="fill:#80A4FF;" d="M256,377v60h-61c0-21.84-5.87-42.34-16.11-60H256z"/>
<path style="fill:#5585FF;" d="M210,437h-30c0-57.897-47.103-105-105-105v-30C149.439,302,210,362.561,210,437z"/>
<path style="fill:#707789;" d="M332,452H75v-30h227.831c3.176-28.539,15.373-55.329,35.138-76.668
	c23.062-24.897,54.288-40.125,87.929-42.879l2.447,29.9C374.319,336.775,332,382.742,332,437V452z"/>
<polygon style="fill:#384055;" points="377,45 329.31,45 303.155,22.5 329.31,0 359.31,0 "/>
<polygon style="fill:#4F5669;" points="389.72,0 451.8,374.55 422.2,379.45 359.31,0 "/>
<rect x="247" style="fill:#5585FF;" width="82.31" height="45"/>
<path style="fill:#FFC454;" d="M437,362c41.357,0,75,33.643,75,75s-33.643,75-75,75l-29.082-75L437,362z"/>
<path style="fill:#FFE361;" d="M437,362v150c-41.353,0-75-33.643-75-75S395.647,362,437,362z"/>
<path style="fill:#202940;" d="M437,392c24.814,0,45,20.186,45,45s-20.186,45-45,45l-17.449-45L437,392z"/>
<path style="fill:#4F5669;" d="M437,392v90c-24.812,0-45-20.186-45-45S412.188,392,437,392z"/>
<g>
</g>
<g>
</g>
<g>
</g>
<g>
</g>
<g>
</g>
<g>
</g>
<g>
</g>
<g>
</g>
<g>
</g>
<g>
</g>
<g>
</g>
<g>
</g>
<g>
</g>
<g>
</g>
<g>
</g>
</svg>
